# xmcd CD database file
#
# Track frame offsets:
#	150
#	41675
#	69039
#	104666
#	138287
#	177513
#	201171
#
# Disc length: 3005 seconds
#
# Revision: 0
# Processed by: cddbd v1.4PL0 Copyright (c) Steve Scherf et al.
# Submitted via: CDex 1.50beta10
#
DISCID=610bbb07
DTITLE=Grazyna Auguscik - Past Forward
DYEAR=2003
DGENRE=Jazz
TTITLE0=Mother (Matulu)
TTITLE1=Why Me (Czemu zes mnie)
TTITLE2=Soul Migration
TTITLE3=Lullaby (Usnijze mi)
TTITLE4=Past Forward
TTITLE5=Krywan
TTITLE6=No Return
EXTD=YEAR: 2003
EXTT0=
EXTT1=
EXTT2=
EXTT3=
EXTT4=
EXTT5=
EXTT6=
PLAYORDER=
